<svg width="83" height="79" fill="none" xmlns="http://www.w3.org/2000/svg"><g filter="url(#filter0_dd)"><path d="M63.931 4.807c-5.296-.078-11.224 2.75-14.703 6.23-1.323 1.323-2.147 2.6-2.619 3.868-1.67-1.245-3.534-2.239-5.873-2.495l-7.951-.883-3.447-.49a5.89 5.89 0 00-4.971 1.652L5.923 31.128a5.898 5.898 0 00-1.208 6.523l4.074 9.17a15.142 15.142 0 003.854 5.25l3.836 3.314-.412.407a8.147 8.147 0 00-2.398 5.8 8.19 8.19 0 008.203 8.203 8.187 8.187 0 005.8-2.398l1.258-1.264 3.273 2.83a5.407 5.407 0 003.566 1.331 5.411 5.411 0 003.841-1.579 5.381 5.381 0 001.543-4.431 5.556 5.556 0 005.822-1.277 5.507 5.507 0 001.612-4.097 5.537 5.537 0 006.674-.88 5.52 5.52 0 001.479-5.149 5.554 5.554 0 005.154-1.479l.28-.279c2-2.005 2.114-5.246.26-7.384l-5.154-5.95 1.78-1.786c4.953 1.557 8.904 2.701 13.367-1.767 4.266-4.266 7.567-12.24 5.695-18.191a1.16 1.16 0 00-.838-.783c-.398-.1-.82.018-1.108.307l-7.315 7.315a1.177 1.177 0 01-1.126.302l-1.282-.343a8.22 8.22 0 01-5.8-5.8l-.347-1.282a1.171 1.171 0 01.306-1.13l7.324-7.33a1.173 1.173 0 00-.471-1.945c-1.117-.357-2.307-.531-3.534-.55zm-.105 2.357c.302 0 .6.014.892.037l-5.767 5.768a3.529 3.529 0 00-.911 3.396l.343 1.282a10.577 10.577 0 007.457 7.457l1.282.348a3.528 3.528 0 003.4-.916l5.746-5.745c.361 4.688-2.28 10.57-5.498 13.788-3.543 3.539-6.285 2.678-11.27 1.108l-.417-.133a1.183 1.183 0 00-1.18.289l-2.166 2.17-7.695-8.881 1.575-1.575c.311-.307.421-.764.288-1.181l-.128-.417c-1.575-4.985-2.44-7.727 1.103-11.27 3.03-3.026 8.414-5.534 12.946-5.525zm-35.637 6.17c.265-.027.54-.018.815.02l3.483.498c.005 0 .01-.005.014-.005.01.005.014.01.023.01l7.951.879c2.216.247 3.914 1.332 5.608 2.746-.092 2.18.586 4.422 1.373 6.922l-.957.952-3.02-3.489a1.168 1.168 0 00-1.653-.114 1.168 1.168 0 00-.12 1.648l18.957 21.872a3.08 3.08 0 01-.151 4.188l-.28.284a3.188 3.188 0 01-4.211.261l-4.418-3.438a1.168 1.168 0 00-1.597.151 1.17 1.17 0 00.046 1.603l3.552 3.552a3.191 3.191 0 010 4.504 3.192 3.192 0 01-4.212.257l-4.417-3.438a1.175 1.175 0 00-1.602.15 1.174 1.174 0 00.05 1.603l1.89 1.89a3.183 3.183 0 010 4.505 3.192 3.192 0 01-4.206.266l-4.422-3.438a1.164 1.164 0 00-1.598.146 1.176 1.176 0 00.05 1.607l2.811 2.806c.577.577.898 1.346.898 2.16 0 .82-.32 1.59-.898 2.166a3.089 3.089 0 01-4.206.137l-19.56-16.891a12.802 12.802 0 01-3.25-4.431l-4.075-9.174a3.539 3.539 0 01.723-3.91l18.444-18.438a3.527 3.527 0 012.165-1.016zm25.177 7.302a1.16 1.16 0 00-.824.343 1.163 1.163 0 000 1.658l8.28 8.285a1.174 1.174 0 001.662-1.657l-8.29-8.286a1.164 1.164 0 00-.828-.343zm-7.457 17.4a1.171 1.171 0 00-.829 2l1.657 1.657a1.175 1.175 0 001.662 0 1.17 1.17 0 000-1.657l-1.662-1.657a1.164 1.164 0 00-.828-.343zm-4.143 4.147c-.302 0-.6.11-.828.339a1.177 1.177 0 000 1.662l1.661 1.652c.225.229.527.343.824.343.302 0 .605-.114.829-.343.462-.458.462-1.2 0-1.652l-1.657-1.662a1.16 1.16 0 00-.829-.339zm-4.143 4.143c-.297 0-.6.11-.828.343a1.166 1.166 0 000 1.653l1.657 1.661a1.179 1.179 0 001.657 0 1.176 1.176 0 000-1.661l-1.657-1.653a1.153 1.153 0 00-.829-.343zm-4.142 4.138c-.298 0-.6.114-.829.348a1.166 1.166 0 000 1.652l1.657 1.662c.23.224.527.343.829.343.302 0 .6-.119.828-.343.458-.462.458-1.2 0-1.662l-1.657-1.652a1.158 1.158 0 00-.828-.348zm-4.143 4.143c-.302 0-.6.114-.833.343a1.177 1.177 0 000 1.662l1.661 1.652a1.16 1.16 0 001.653 0 1.158 1.158 0 000-1.652l-1.653-1.662a1.18 1.18 0 00-.828-.343zm-11.083 2.307L27.15 64.6l-1.14 1.135a5.866 5.866 0 01-8.286 0 5.81 5.81 0 01-1.716-4.143c0-1.565.609-3.035 1.716-4.143l.531-.535z" fill="#E4B564"/></g><defs><filter id="filter0_dd" x="0" y="0" width="83" height="83" filterUnits="userSpaceOnUse" color-interpolation-filters="sRGB"><feFlood flood-opacity="0" result="BackgroundImageFix"/><feColorMatrix in="SourceAlpha" values="0 0 0 0 0 0 0 0 0 0 0 0 0 0 0 0 0 0 127 0" result="hardAlpha"/><feOffset dy="4"/><feGaussianBlur stdDeviation="2"/><feComposite in2="hardAlpha" operator="out"/><feColorMatrix values="0 0 0 0 0 0 0 0 0 0 0 0 0 0 0 0 0 0 0.25 0"/><feBlend in2="BackgroundImageFix" result="effect1_dropShadow"/><feColorMatrix in="SourceAlpha" values="0 0 0 0 0 0 0 0 0 0 0 0 0 0 0 0 0 0 127 0" result="hardAlpha"/><feOffset dy="4"/><feGaussianBlur stdDeviation="2"/><feComposite in2="hardAlpha" operator="out"/><feColorMatrix values="0 0 0 0 0 0 0 0 0 0 0 0 0 0 0 0 0 0 0.25 0"/><feBlend in2="effect1_dropShadow" result="effect2_dropShadow"/><feBlend in="SourceGraphic" in2="effect2_dropShadow" result="shape"/></filter></defs></svg>