<svg width="80" height="80" fill="none" xmlns="http://www.w3.org/2000/svg"><path d="M31 13c-1.094 0-2 .906-2 2v.473c-6.164 1.375-10.8 6.699-10.945 13.23C16.887 29.403 16 30.543 16 32v3h2v3.547h.004c.008.566.168 1.012.297 1.453.066.23.133.441.172.598.043.156.047.312.047.152 0 1.254 1.066 2.25 2.304 2.25h.27A10.94 10.94 0 0025 50.875v3.293c-1.438.34-4.637 1.172-7.875 2.469-2.172.87-4.367 1.949-6.082 3.289C9.324 61.266 8 62.949 8 65v5h48v-5c0-1.105-.395-2.102-1.02-3H72v-3.8c0-1.759-1.09-3.223-2.484-4.427-1.395-1.203-3.168-2.203-4.926-3.035A45.675 45.675 0 0058 48.25v-1.234c2.219-1.524 3.691-4.035 3.89-6.903h.137c1.102 0 2.051-.886 2.051-2.008 0 .18 0 .051.031-.074l.141-.472c.09-.301.18-.625.219-1.012H65V33h2v-3c0-1.48-.824-2.82-2.106-3.512A11.983 11.983 0 0056 16.387V16c0-1.102-.898-2-2-2h-2c-1.102 0-2 .898-2 2v.39a11.93 11.93 0 00-4.5 2.258c.406.532.79 1.082 1.129 1.657a10.025 10.025 0 013.477-1.86A1 1 0 0052 18.023V16h1.999v2.023c.016.543.457.977 1 .977.379 0 .727-.219.895-.559a9.977 9.977 0 016.89 7.582A1.003 1.003 0 0062 27c0 .55.45 1 1 1a.821.821 0 00.219-.027l.418.144A1.992 1.992 0 0165 30v1H51v2h9v3.89l1.336-.706a.236.236 0 01.074-.028c.086-.015.219-.031.352-.043l.355-.031c.051 0 .09-.004.117-.004h.004c.176 0 .262.102.262.207 0-.043-.066.363-.168.707-.05.172-.105.348-.148.52-.047.168-.106.273-.106.593 0-.003.012.008-.05.008H60V39.5c0 3.504-2.441 6.367-5.75 6.957l-.281.05-.215.196A1.114 1.114 0 0153 47c-.29 0-.543-.11-.754-.297l-.215-.195-.281-.051c-.574-.102-1.176-.203-1.75-.3V46h-2v3.95l.105.21S49.61 53 53 53c3.156 0 4.617-2.375 4.813-2.715.91.27 3.199.98 5.921 2.262 1.66.785 3.309 1.734 4.477 2.742C69.379 56.297 70 57.297 70 58.2V60H53.047a2.558 2.558 0 00-.09-.074c-1.715-1.34-3.91-2.418-6.082-3.29-3.238-1.296-6.438-2.128-7.875-2.468v-3.293A10.94 10.94 0 0042.906 43h.27c1.238 0 2.304-.996 2.304-2.25 0 .16.004.004.047-.152.04-.157.106-.367.172-.598.13-.441.29-.887.297-1.453H46V35h2v-3c0-1.453-.887-2.598-2.05-3.293-.145-6.535-4.786-11.86-10.95-13.234V15c0-1.094-.906-2-2-2h-2zm0 2h2v2.027c.016.54.457.973 1 .973a.998.998 0 00.926-.625c4.902 1.227 8.601 5.45 9.027 10.625A1.003 1.003 0 0043 29c0 .55.45 1 1 1a.85.85 0 00.223-.027l.43.148A1.98 1.98 0 0146 32v1H18v-1a1.98 1.98 0 011.348-1.875l.425-.152A1.002 1.002 0 0021 29c0-.535-.422-.973-.953-1 .426-5.176 4.125-9.395 9.027-10.625A.998.998 0 0031 17.027V15zm-1 5c-.55 0-1 .45-1 1s.45 1 1 1 1-.45 1-1-.45-1-1-1zm4 0c-.55 0-1 .45-1 1s.45 1 1 1 1-.45 1-1-.45-1-1-1zm17 1c-.55 0-1 .45-1 1s.45 1 1 1 1-.45 1-1-.45-1-1-1zm4 0c-.55 0-1 .45-1 1s.45 1 1 1 1-.45 1-1-.45-1-1-1zm-25 3c-.55 0-1 .45-1 1s.45 1 1 1 1-.45 1-1-.45-1-1-1zm4 0c-.55 0-1 .45-1 1s.45 1 1 1 1-.45 1-1-.45-1-1-1zm25 2c-.55 0-1 .45-1 1s.45 1 1 1 1-.45 1-1-.45-1-1-1zm-35 2c-.55 0-1 .45-1 1s.45 1 1 1 1-.45 1-1-.45-1-1-1zm16 0c-.55 0-1 .45-1 1s.45 1 1 1 1-.45 1-1-.45-1-1-1zm22 5h1v1.219a2.176 2.176 0 00-.762-.14h-.117a3.26 3.26 0 01-.121.01V33zm-42 2h1v1.031c-.047-.004-.102-.011-.14-.015a5.36 5.36 0 01-.165-.012c-.043 0-.02-.004-.133-.004-.19 0-.378.027-.562.066V35zm3 0h18v3.844l1.344-.703a.513.513 0 01.12-.043c.106-.016.259-.035.411-.051.152-.012.3-.027.418-.035.055-.004.102-.008.133-.012h.011c.344 0 .563.234.563.5 0 .016-.094.508-.219.938-.066.218-.129.433-.187.636-.055.203-.114.34-.114.676 0 .125-.101.25-.304.25H41v1.473c0 4.437-3.2 8.101-7.41 8.851l-.285.051-.211.195c-.301.27-.672.43-1.094.43-.422 0-.793-.16-1.094-.43l-.21-.195-.286-.05A8.984 8.984 0 0123 42.472V41h-2.176c-.203 0-.305-.125-.305-.25 0-.336-.058-.473-.113-.676a46.247 46.247 0 00-.187-.636A9.93 9.93 0 0120 38.5c0-.266.219-.5.563-.5h.007c.032.004.082.008.137.012.117.008.266.023.418.035.152.016.305.035.41.05.055.012.117.04.133.044l1.332.703V35zm20 0h1v1.066a2.698 2.698 0 00-.563-.066c-.113 0-.09.004-.132.004a5.36 5.36 0 01-.164.012L43 36.03V35zm13.5 0a1.5 1.5 0 100 3 1.5 1.5 0 000-3zm-29 3a1.5 1.5 0 100 3 1.5 1.5 0 000-3zm9 0a1.5 1.5 0 100 3 1.5 1.5 0 000-3zM56 48.04v1.362c-.117.23-.855 1.598-3 1.598s-2.883-1.367-3-1.598v-1.215c.477.079.73.122 1.172.2.512.37 1.14.613 1.828.613.7 0 1.336-.246 1.852-.629A9.25 9.25 0 0056 48.04zM27 52.2c.871.448 1.805.792 2.797.995.61.477 1.36.805 2.203.805.844 0 1.594-.328 2.203-.805A10.834 10.834 0 0037 52.2v3.457c-.121.242-1.422 2.746-5 2.746-3.578 0-4.879-2.504-5-2.746V52.2zM53 56c-.55 0-1 .45-1 1s.45 1 1 1 1-.45 1-1-.45-1-1-1zm4 0c-.55 0-1 .45-1 1s.45 1 1 1 1-.45 1-1-.45-1-1-1zm4 0c-.55 0-1 .45-1 1s.45 1 1 1 1-.45 1-1-.45-1-1-1zm4 0c-.55 0-1 .45-1 1s.45 1 1 1 1-.45 1-1-.45-1-1-1zm-39.988.227l.093.191S27.18 60.402 32 60.402c4.82 0 6.895-3.984 6.895-3.984l.093-.191c1.52.375 4.29 1.12 7.137 2.265 2.078.832 4.133 1.864 5.605 3.008C53.2 62.648 54 63.828 54 65v3H10v-3c0-1.172.8-2.352 2.27-3.5 1.472-1.145 3.527-2.176 5.605-3.008 2.848-1.144 5.617-1.89 7.137-2.265zM14 64c-.55 0-1 .45-1 1s.45 1 1 1 1-.45 1-1-.45-1-1-1zm4 0c-.55 0-1 .45-1 1s.45 1 1 1 1-.45 1-1-.45-1-1-1zm4 0c-.55 0-1 .45-1 1s.45 1 1 1 1-.45 1-1-.45-1-1-1zm4 0c-.55 0-1 .45-1 1s.45 1 1 1 1-.45 1-1-.45-1-1-1zm4 0c-.55 0-1 .45-1 1s.45 1 1 1 1-.45 1-1-.45-1-1-1zm4 0c-.55 0-1 .45-1 1s.45 1 1 1 1-.45 1-1-.45-1-1-1zm4 0c-.55 0-1 .45-1 1s.45 1 1 1 1-.45 1-1-.45-1-1-1zm4 0c-.55 0-1 .45-1 1s.45 1 1 1 1-.45 1-1-.45-1-1-1zm4 0c-.55 0-1 .45-1 1s.45 1 1 1 1-.45 1-1-.45-1-1-1zm4 0c-.55 0-1 .45-1 1s.45 1 1 1 1-.45 1-1-.45-1-1-1z" fill="#E4B564"/></svg>