<svg width="110" height="49" fill="none" xmlns="http://www.w3.org/2000/svg"><path d="M9.734 17l-4.113-6.844H4.238V17H.148V.195h4.09v6.703h1.383L9.465.195h4.488L8.961 8.316 14.363 17H9.734zm14.93-1.277c-.922 1.03-2.383 1.546-4.383 1.546s-3.46-.515-4.383-1.546c-.914-1.04-1.37-2.668-1.37-4.887 0-2.227.456-3.852 1.37-4.875.922-1.024 2.383-1.535 4.383-1.535s3.461.511 4.383 1.535c.922 1.023 1.383 2.648 1.383 4.875 0 2.219-.461 3.848-1.383 4.887zm-5.883-2.309c.282.484.778.727 1.489.727.71 0 1.21-.243 1.5-.727.289-.492.433-1.351.433-2.578 0-1.234-.144-2.094-.433-2.578-.29-.492-.79-.738-1.5-.738-.711 0-1.207.246-1.489.738-.281.484-.422 1.344-.422 2.578 0 1.226.141 2.086.422 2.578zM38.563 4.66h3.292V17h-3.574v-6.96l-3.246 4.558-3.258-4.512V17H28.25V4.66h3.281l3.528 4.992 3.504-4.992zM44.633 17V4.66h10.77V17H51.64V7.812h-3.246V17h-3.762zm16.781.27c-1.281 0-2.262-.344-2.941-1.032-.68-.695-1.02-1.656-1.02-2.883 0-1.171.375-2.085 1.125-2.742.758-.656 1.84-.984 3.246-.984h2.86v-.41c0-.61-.176-1.043-.528-1.301-.351-.266-.969-.398-1.851-.398a14.05 14.05 0 00-3.867.527l.55-3.14c1.172-.29 2.524-.434 4.055-.434 3.586 0 5.379 1.59 5.379 4.77V17h-3.258l-.48-1.242c-.516 1.008-1.606 1.512-3.27 1.512zm1.184-2.766c.734 0 1.265-.14 1.593-.422.328-.281.493-.781.493-1.5v-.715h-2.086c-1.024 0-1.54.438-1.547 1.313.008.883.523 1.324 1.547 1.324zM78.172 4.66h3.773V17h-3.773v-4.676h-3.34V17H71.07V4.66h3.762v4.617h3.34V4.66zm14.168 0h3.668V17H92.34V9.875L88.402 17h-3.668V4.66h3.668v7.16l3.938-7.16zm10.969 0h5.859V17h-3.633v-3.96h-1.558L101.938 17h-3.961l2.496-4.488c-1.391-.64-2.086-1.848-2.086-3.621 0-2.82 1.64-4.23 4.922-4.23zm2.226 5.602V7.637h-1.992c-1.008 0-1.512.437-1.512 1.312s.504 1.313 1.512 1.313h1.992zM3.582 42.582l-3-4.746 3-4.734h3.176l-2.473 4.734 2.473 4.746H3.582zm5.356 0l-3.024-4.746 3.024-4.734h3.14l-2.45 4.734 2.45 4.746h-3.14zM25.085 44l-1.031-3.27h-5.813L17.187 44h-4.171l6.164-16.805h4.008L29.363 44h-4.277zm-5.86-6.41h3.82l-1.921-5.953-1.898 5.953zM30.747 44V31.66h10.77V44h-3.762v-9.188h-3.246V44h-3.762zm20.625-12.574c1.54 0 2.664.508 3.375 1.523.711 1.016 1.066 2.645 1.066 4.887 0 2.234-.355 3.867-1.066 4.898-.71 1.024-1.836 1.535-3.375 1.535a4.256 4.256 0 01-1.7-.328c-.5-.218-.855-.425-1.066-.62a5.99 5.99 0 01-.503-.563v5.484l-3.786.563V31.66h3.305l.48 1.277c.126-.195.294-.386.505-.574.21-.195.566-.398 1.066-.61a4.253 4.253 0 011.7-.327zm-2.836 8.988c.29.484.79.727 1.5.727.711 0 1.215-.243 1.512-.727.297-.492.445-1.352.445-2.578 0-1.234-.148-2.094-.445-2.578-.297-.492-.8-.739-1.512-.739-.71 0-1.21.247-1.5.739-.289.484-.433 1.344-.433 2.578 0 1.227.144 2.086.433 2.578zm15.446 3.855c-2.258 0-3.907-.53-4.946-1.593-1.039-1.07-1.558-2.668-1.558-4.793 0-2.11.488-3.711 1.464-4.805.985-1.101 2.43-1.652 4.336-1.652 3.711 0 5.567 2.12 5.567 6.363v1.102H61.19c.063.78.336 1.363.82 1.746.493.383 1.266.574 2.321.574.688 0 1.402-.066 2.145-.2.75-.132 1.355-.28 1.816-.445l-.527 3.141a12.43 12.43 0 01-3.786.563zm-2.79-7.687h4.278c-.078-1.586-.785-2.379-2.121-2.379-.641 0-1.145.203-1.512.61-.367.398-.582.988-.645 1.769zM72.36 31.66h9.387V44h-3.68v-9.188h-2.402l-.14 3.598c-.157 3.89-1.508 5.832-4.055 5.824-.61 0-1.035-.07-1.278-.21l-.527-3.07c.211.062.477.093.797.093.516 0 .902-.207 1.16-.621.266-.414.422-1.145.469-2.192l.27-6.574zM84.535 44V31.66h3.715v3.48h2.309c1.632 0 2.859.387 3.68 1.16.827.766 1.242 1.852 1.242 3.259 0 1.422-.415 2.52-1.243 3.293-.82.765-2.047 1.148-3.68 1.148h-6.023zm3.715-2.953h2.016c.492 0 .867-.125 1.125-.375.257-.258.386-.629.386-1.113 0-.977-.504-1.465-1.511-1.465H88.25v2.953zm11.812 1.535h-3.164l2.473-4.746-2.473-4.734h3.164l3 4.734-3 4.746zm5.356 0h-3.164l2.437-4.746-2.437-4.734h3.164l3 4.734-3 4.746z" fill="#fff"/></svg>